<svg xmlns="http://www.w3.org/2000/svg" xmlns:xlink="http://www.w3.org/1999/xlink" width="20" height="20" viewBox="0 0 20 20">
  <defs>
    <style>
      .cls-1 {
        fill: #fff;
        stroke: #707070;
      }

      .cls-2 {
        clip-path: url(#clip-path);
      }

      .cls-3 {
        fill: url(#linear-gradient);
      }

      .cls-4 {
        fill: #686868;
      }
    </style>
    <clipPath id="clip-path">
      <rect id="矩形_514" data-name="矩形 514" class="cls-1" width="20" height="20" transform="translate(171 153)"/>
    </clipPath>
    <linearGradient id="linear-gradient" x1="0.5" x2="0.5" y2="1" gradientUnits="objectBoundingBox">
      <stop offset="0" stop-color="#e5b293"/>
      <stop offset="1" stop-color="#f5dcc3"/>
    </linearGradient>
  </defs>
  <g id="mengbanzu282" class="cls-2" transform="translate(-171 -153)">
    <g id="组_480" data-name="组 480" transform="translate(159 153.136)">
      <g id="组_435" data-name="组 435" transform="translate(13)">
        <path id="路径_1170" data-name="路径 1170" class="cls-3" d="M9.378,0A9.39,9.39,0,1,1,0,9.39,9.384,9.384,0,0,1,9.378,0Z"/>
        <g id="组_433" data-name="组 433" transform="translate(2.962 3.949)">
          <path id="路径_1168" data-name="路径 1168" class="cls-4" d="M12.34,3.8,10.086.547A1.467,1.467,0,0,0,8.964,0H3.686A1.413,1.413,0,0,0,2.571.547L.313,3.8A1.441,1.441,0,0,0,.385,5.681l4.944,5.613.072.072a1.478,1.478,0,0,0,.974.381h.047a1.448,1.448,0,0,0,1-.453l4.825-5.587a1.482,1.482,0,0,0,.093-1.9Zm-.572,1.237-5.037,5.8a.479.479,0,0,1-.334.144.574.574,0,0,1-.334-.119L.882,5.016A.474.474,0,0,1,.856,4.4L3.309.924A.5.5,0,0,1,3.69.733H8.968a.5.5,0,0,1,.381.191L11.819,4.4a.538.538,0,0,1-.05.644Z" transform="translate(0)"/>
          <path id="路径_1169" data-name="路径 1169" class="cls-4" d="M265.613,400.9l-2.474,2.639-2.546-2.686a.488.488,0,0,0-.69-.025.481.481,0,0,0-.025.665l2.567,2.711.047.047a.97.97,0,0,0,1.355-.047l2.474-2.686a.481.481,0,0,0-.025-.665A.505.505,0,0,0,265.613,400.9Z" transform="translate(-256.774 -396.098)"/>
        </g>
      </g>
    </g>
  </g>
</svg>
