<svg xmlns="http://www.w3.org/2000/svg" xmlns:xlink="http://www.w3.org/1999/xlink" width="14" height="11" viewBox="0 0 14 11">
  <defs>
    <style>
      .cls-1 {
        fill: #fff;
        stroke: #707070;
      }

      .cls-2 {
        clip-path: url(#clip-path);
      }

      .cls-3 {
        fill: #aaa;
      }
    </style>
    <clipPath id="clip-path">
      <rect id="矩形_527" data-name="矩形 527" class="cls-1" width="14" height="11" transform="translate(51 316)"/>
    </clipPath>
  </defs>
  <g id="mengbanzu278" class="cls-2" transform="translate(-51 -316)">
    <path id="路径_1321" data-name="路径 1321" class="cls-3" d="M7.92,240A6.986,6.986,0,0,0,2,243.185a6.976,6.976,0,0,0,5.92,3.174,7,7,0,0,0,5.92-3.174A6.986,6.986,0,0,0,7.92,240Zm.023,5.381a2.2,2.2,0,1,1,0-4.393,2.2,2.2,0,1,1,0,4.393Zm0-.736a1.468,1.468,0,1,0,0-2.932,1.468,1.468,0,1,0,0,2.932Z" transform="translate(50.499 79)"/>
  </g>
</svg>
