<svg xmlns="http://www.w3.org/2000/svg" width="45" height="45" viewBox="0 0 45 45">
  <defs>
    <style>
      .cls-1 {
        fill: #fbf3e7;
      }

      .cls-2 {
        fill: #efca83;
      }

      .cls-3 {
        fill: #edcc89;
      }
    </style>
  </defs>
  <g id="caipu" transform="translate(-23 -623)">
    <circle id="椭圆_46" data-name="椭圆 46" class="cls-1" cx="22.5" cy="22.5" r="22.5" transform="translate(23 623)"/>
    <g id="组_503" data-name="组 503" transform="translate(31 634)">
      <path id="路径_1257" data-name="路径 1257" class="cls-2" d="M536.5,21.083l0-15.2c-.133-3.286,1.4-4.628,4.158-5.126,2.13-.384,4.309-.49,6.785-.753,0,6.319-.008,17.958-.008,17.958l.008,1.5a28.162,28.162,0,0,0-10.94,1.624Z" transform="translate(-521.739)"/>
      <path id="路径_1258" data-name="路径 1258" class="cls-2" d="M555.9,123.16c3.837-.624,7.712-1.248,11.952-1.937V103.866h.913l0,18.107c-.02.748-.829,2.089-1.311,2.113l-10.823,0C556.338,124.083,555.9,123.16,555.9,123.16Z" transform="translate(-540.618 -101.011)"/>
      <path id="路径_1259" data-name="路径 1259" class="cls-3" d="M103.046,21.083l0-15.2c.133-3.286-1.4-4.628-4.159-5.126C96.762.369,94.583.263,92.106,0c0,6.319.009,17.958.009,17.958l-.009,1.5a28.164,28.164,0,0,1,10.941,1.624Z" transform="translate(-89.574)"/>
      <path id="路径_1260" data-name="路径 1260" class="cls-2" d="M12.856,123.155c-3.837-.624-7.657-1.248-11.9-1.937,0-5.714,0-17.357,0-17.357H0v18.107c.02.748.874,2.089,1.355,2.113l10.768,0C12.417,124.078,12.856,123.155,12.856,123.155Z" transform="translate(0 -101.006)"/>
    </g>
  </g>
</svg>
