<svg xmlns="http://www.w3.org/2000/svg" xmlns:xlink="http://www.w3.org/1999/xlink" width="54" height="54" viewBox="0 0 54 54">
  <defs>
    <style>
      .cls-1 {
        fill: #fff;
      }

      .cls-2 {
        fill: #ddd;
      }

      .cls-3 {
        clip-path: url(#clip-path);
      }

      .cls-4 {
        fill: url(#linear-gradient);
      }

      .cls-5 {
        clip-path: url(#clip-path-2);
      }

      .cls-6 {
        fill: #ffc39b;
      }

      .cls-7 {
        fill: #eca782;
      }

      .cls-8 {
        fill: #dbdbdb;
      }

      .cls-9 {
        fill: #ffb58e;
      }

      .cls-10 {
        fill: #e19e7d;
      }

      .cls-11 {
        fill: #572129;
      }

      .cls-12 {
        fill: #d99878;
      }
    </style>
    <clipPath id="clip-path">
      <circle id="椭圆_25" data-name="椭圆 25" class="cls-1" cx="27" cy="27" r="27" transform="translate(0.5 0.5)"/>
    </clipPath>
    <linearGradient id="linear-gradient" x1="0.5" x2="0.5" y2="1" gradientUnits="objectBoundingBox">
      <stop offset="0" stop-color="#e5b293"/>
      <stop offset="1" stop-color="#f5dcc3"/>
    </linearGradient>
    <clipPath id="clip-path-2">
      <circle id="椭圆_25-2" data-name="椭圆 25" class="cls-2" cx="23.5" cy="23.5" r="23.5" transform="translate(-0.146 -0.146)"/>
    </clipPath>
  </defs>
  <g id="touxiang_495" data-name="touxiang 495" transform="translate(-167.5 -137.175)">
    <g id="组_430" data-name="组 430" transform="translate(167 136.675)">
      <circle id="椭圆_24" data-name="椭圆 24" class="cls-1" cx="27" cy="27" r="27" transform="translate(0.5 0.5)"/>
      <g id="蒙版组_83" data-name="蒙版组 83" class="cls-3" transform="translate(0 0)">
        <g id="组_427" data-name="组 427" transform="translate(14.148 5.99)">
          <path id="路径_1138" data-name="路径 1138" class="cls-1" d="M236.349,568.478a1.871,1.871,0,0,1-.95,2.315c-.763.2-1.578-.51-1.818-1.587a1.871,1.871,0,0,1,.95-2.315c.765-.2,1.58.51,1.818,1.587" transform="translate(-231.541 -546.402)"/>
          <path id="路径_1139" data-name="路径 1139" class="cls-1" d="M237.8,571.366c.165.749-.037,1.042-.6,1.19s-1.264.092-1.431-.657a1.312,1.312,0,0,1,.714-1.623c.559-.149,1.149.339,1.314,1.09" transform="translate(-233.364 -549.192)"/>
          <path id="路径_1140" data-name="路径 1140" class="cls-1" d="M241.363,575.262a.616.616,0,1,1-.6-.462.541.541,0,0,1,.6.462" transform="translate(-237.015 -552.935)"/>
          <path id="路径_1141" data-name="路径 1141" class="cls-1" d="M335.091,568.478a1.871,1.871,0,0,0,.95,2.315c.763.2,1.578-.51,1.816-1.587a1.871,1.871,0,0,0-.95-2.315c-.764-.2-1.578.51-1.816,1.587" transform="translate(-315.028 -546.402)"/>
          <path id="路径_1142" data-name="路径 1142" class="cls-1" d="M337.218,571.366c-.167.749.037,1.042.6,1.19s1.264.092,1.431-.657a1.314,1.314,0,0,0-.714-1.623c-.559-.149-1.149.339-1.314,1.09" transform="translate(-316.786 -549.192)"/>
          <path id="路径_1143" data-name="路径 1143" class="cls-1" d="M337.99,575.262a.615.615,0,1,0,.595-.462.54.54,0,0,0-.595.462" transform="translate(-317.467 -552.935)"/>
          <path id="路径_1144" data-name="路径 1144" class="cls-1" d="M242.224,656.891h-1.831a4.654,4.654,0,0,1-4.654-4.654v-2.448a6.118,6.118,0,0,1,6.04-6.448l.446,1.557a3.67,3.67,0,0,1,3.659,3.659v4.675a3.673,3.673,0,0,1-3.661,3.659" transform="translate(-233.372 -609.306)"/>
          <path id="路径_1145" data-name="路径 1145" class="cls-1" d="M295.409,656.891h1.831a4.654,4.654,0,0,0,4.653-4.654v-2.448a6.118,6.118,0,0,0-6.04-6.448l-.444,1.557a3.669,3.669,0,0,0-3.659,3.659v4.675a3.669,3.669,0,0,0,3.659,3.659" transform="translate(-279.437 -609.306)"/>
          <path id="路径_1146" data-name="路径 1146" class="cls-1" d="M259.926,656.627H246.8a1.618,1.618,0,0,1-1.612-1.612v-8.767a3.237,3.237,0,0,1,3.228-3.228h10.294a3.237,3.237,0,0,1,3.228,3.228v8.368a2.02,2.02,0,0,1-2.013,2.012" transform="translate(-241.144 -609.043)"/>
          <path id="路径_1147" data-name="路径 1147" class="cls-1" d="M280.492,608.556h0a5.8,5.8,0,0,1-2.562-.65v-6.085a2.562,2.562,0,0,1,5.124,0v6.085a5.817,5.817,0,0,1-2.562.65" transform="translate(-268.071 -573.052)"/>
          <path id="路径_1148" data-name="路径 1148" class="cls-1" d="M280.492,599.99a2.569,2.569,0,0,0-2.562,2.562v4.035a7.843,7.843,0,0,0,5.122-.518v-3.516a2.569,2.569,0,0,0-2.56-2.564" transform="translate(-268.071 -573.653)"/>
          <path id="路径_1149" data-name="路径 1149" class="cls-1" d="M260.4,534.25c0,5.507-3.942,9.971-8.8,9.971s-8.8-4.464-8.8-9.971,3.942-9.3,8.8-9.3,8.8,3.792,8.8,9.3" transform="translate(-239.17 -511.936)"/>
          <path id="路径_1150" data-name="路径 1150" class="cls-1" d="M265.89,552.232c0-.158,0-.316-.011-.472,0-.046-.005-.092-.007-.14-.007-.115-.014-.232-.023-.346l-.011-.117c-.014-.142-.028-.282-.048-.421v-.005a9.505,9.505,0,0,0-1.434-3.91,11.034,11.034,0,0,1,.847,4.258c0,5.508-3.942,9.971-8.8,9.971a8.461,8.461,0,0,1-6.93-3.828h0a10.008,10.008,0,0,0,.985,1.559.046.046,0,0,0,.009.011,9.625,9.625,0,0,0,.792.9l.005.005c.133.133.27.261.41.385.014.012.027.023.039.036a8.627,8.627,0,0,0,.9.694l.059.037c.135.089.272.174.41.254l.087.05a8.089,8.089,0,0,0,.98.472l.114.043c.131.052.265.1.4.142l.133.043c.169.051.339.1.511.14l.005,0c.174.041.35.073.527.1.05.009.1.014.149.021.133.02.266.034.4.046.053.005.1.011.158.014.181.013.362.021.545.021a8.012,8.012,0,0,0,4.565-1.443,9.607,9.607,0,0,0,3.176-3.775q.2-.424.371-.872a11.089,11.089,0,0,0,.692-3.881v0Z" transform="translate(-244.664 -529.923)"/>
          <path id="路径_1151" data-name="路径 1151" class="cls-1" d="M243.112,543.394s-.025-3.4,2.132-4.714,6.736-.573,8.315-3.783c0,0,1.744,2.7,4.1,3.407s2.709,4.565,2.709,4.565a17.568,17.568,0,0,0-.039-4.565c-.353-2.461-5.511-5.729-11.221-4.49s-6.766,3.711-6,9.58" transform="translate(-239.254 -519.002)"/>
          <path id="路径_1152" data-name="路径 1152" class="cls-1" d="M234.34,487.98l1.582,13.792a11.057,11.057,0,0,1,8.611-3.714,11.628,11.628,0,0,1,8.872,3.713l1.319-13.79Z" transform="translate(-232.22 -481.53)"/>
          <path id="路径_1153" data-name="路径 1153" class="cls-1" d="M235.837,490.568a3.357,3.357,0,0,0,4.277-.027,5.117,5.117,0,0,0,8.916-.128,3.352,3.352,0,0,0,4.416.153,4.5,4.5,0,0,0,.962.71l.318-3.317H234.34l.38,3.306a2.007,2.007,0,0,0,1.117-.7" transform="translate(-232.22 -481.513)"/>
          <path id="路径_1154" data-name="路径 1154" class="cls-1" d="M279.387,595.3a5.024,5.024,0,0,1-1.44,1.641,3.938,3.938,0,0,1-1,.524,3.391,3.391,0,0,1-2.259,0,3.937,3.937,0,0,1-1-.524,5.026,5.026,0,0,1-1.44-1.641,8.43,8.43,0,0,0,1.653,1.309,3.646,3.646,0,0,0,3.83,0,8.39,8.39,0,0,0,1.655-1.309" transform="translate(-263.399 -569.795)"/>
          <path id="路径_1155" data-name="路径 1155" class="cls-1" d="M287.664,583.868a1.052,1.052,0,0,1-.952-.478.533.533,0,0,0-.062.238c0,.4.453.717,1.014.717s1.012-.321,1.012-.717a.533.533,0,0,0-.062-.238,1.046,1.046,0,0,1-.95.478" transform="translate(-275.242 -560)"/>
          <path id="路径_1156" data-name="路径 1156" class="cls-1" d="M261.263,566.184a1.216,1.216,0,0,1-.02-.833,1.047,1.047,0,0,1,.243-.4.7.7,0,0,1,1.016,0,1.031,1.031,0,0,1,.243.4,1.213,1.213,0,0,1-.021.835,3.5,3.5,0,0,0-.337-.661,1,1,0,0,0-.2-.216.345.345,0,0,0-.188-.071.331.331,0,0,0-.188.071.931.931,0,0,0-.2.218,3.2,3.2,0,0,0-.339.657" transform="translate(-254.294 -544.653)"/>
          <path id="路径_1157" data-name="路径 1157" class="cls-1" d="M314.443,566.184a1.216,1.216,0,0,1-.02-.833,1.045,1.045,0,0,1,.243-.4.7.7,0,0,1,1.016,0,1.01,1.01,0,0,1,.243.4,1.224,1.224,0,0,1-.02.835,3.413,3.413,0,0,0-.339-.661.955.955,0,0,0-.2-.216.345.345,0,0,0-.188-.071.331.331,0,0,0-.188.071.929.929,0,0,0-.2.218,3.207,3.207,0,0,0-.339.657" transform="translate(-298.032 -544.653)"/>
          <path id="路径_1158" data-name="路径 1158" class="cls-1" d="M245.206,456.067a2.047,2.047,0,0,0-.408.041,3.357,3.357,0,0,0-5.589-1.788,5.117,5.117,0,0,0-8.916-.128,3.361,3.361,0,0,0-5.451,1.914,2.033,2.033,0,1,0-.408,4.025,2.024,2.024,0,0,0,1.58-.756,3.357,3.357,0,0,0,4.277-.027,5.117,5.117,0,0,0,8.916-.128,3.349,3.349,0,0,0,4.416.155,2.032,2.032,0,1,0,1.584-3.308" transform="translate(-222.4 -451.65)"/>
          <path id="路径_1159" data-name="路径 1159" class="cls-1" d="M261.642,677.115h10.631a3.1,3.1,0,0,0,.517-.046V667.93H261.64v9.185Z" transform="translate(-254.673 -629.53)"/>
          <path id="路径_1160" data-name="路径 1160" class="cls-1" d="M266.03,677.115h9.856a3.1,3.1,0,0,0,.517-.046V667.93l-10.372,1.024Z" transform="translate(-258.284 -629.53)"/>
          <path id="路径_1161" data-name="路径 1161" class="cls-1" d="M272.836,679.143a.673.673,0,1,1-.673-.673.674.674,0,0,1,.673.673" transform="translate(-262.774 -638.199)"/>
          <path id="路径_1162" data-name="路径 1162" class="cls-1" d="M272.836,693.773a.673.673,0,1,1-.673-.673.673.673,0,0,1,.673.673" transform="translate(-262.774 -650.231)"/>
          <path id="路径_1163" data-name="路径 1163" class="cls-1" d="M272.836,708.4a.673.673,0,1,1-.673-.671.674.674,0,0,1,.673.671" transform="translate(-262.774 -662.264)"/>
        </g>
      </g>
    </g>
    <g id="组_429" data-name="组 429" transform="translate(171.176 140.851)">
      <circle id="椭圆_24-2" data-name="椭圆 24" class="cls-4" cx="23.5" cy="23.5" r="23.5" transform="translate(0.324 0.324)"/>
      <g id="蒙版组_83-2" data-name="蒙版组 83" class="cls-5" transform="translate(0.47 0.47)">
        <g id="组_427-2" data-name="组 427" transform="translate(11.785 4.497)">
          <path id="路径_1138-2" data-name="路径 1138" class="cls-6" d="M236.06,568.313a1.68,1.68,0,0,1-.853,2.079c-.686.18-1.417-.458-1.633-1.425a1.681,1.681,0,0,1,.853-2.079c.687-.182,1.419.458,1.633,1.425" transform="translate(-231.742 -548.487)"/>
          <path id="路径_1139-2" data-name="路径 1139" class="cls-7" d="M237.591,571.252c.148.673-.034.936-.536,1.068s-1.135.083-1.285-.59a1.178,1.178,0,0,1,.641-1.457c.5-.134,1.032.3,1.18.979" transform="translate(-233.605 -551.339)"/>
          <path id="路径_1140-2" data-name="路径 1140" class="cls-6" d="M241.241,575.215a.553.553,0,1,1-.536-.415.486.486,0,0,1,.536.415" transform="translate(-237.337 -555.164)"/>
          <path id="路径_1141-2" data-name="路径 1141" class="cls-6" d="M335.084,568.313a1.681,1.681,0,0,0,.853,2.079c.686.18,1.418-.458,1.631-1.425a1.681,1.681,0,0,0-.853-2.079c-.686-.182-1.417.458-1.631,1.425" transform="translate(-317.066 -548.487)"/>
          <path id="路径_1142-2" data-name="路径 1142" class="cls-7" d="M337.213,571.252c-.15.673.034.936.536,1.068s1.135.083,1.285-.59a1.18,1.18,0,0,0-.641-1.457c-.5-.134-1.032.3-1.18.979" transform="translate(-318.863 -551.339)"/>
          <path id="路径_1143-2" data-name="路径 1143" class="cls-6" d="M337.99,575.215a.552.552,0,1,0,.534-.415.485.485,0,0,0-.534.415" transform="translate(-319.56 -555.164)"/>
          <path id="路径_1144-2" data-name="路径 1144" class="cls-8" d="M241.563,655.509h-1.644a4.179,4.179,0,0,1-4.179-4.179v-2.2a5.494,5.494,0,0,1,5.424-5.791l.4,1.4a3.3,3.3,0,0,1,3.286,3.286v4.2a3.3,3.3,0,0,1-3.288,3.286" transform="translate(-233.613 -612.776)"/>
          <path id="路径_1145-2" data-name="路径 1145" class="cls-8" d="M295.036,655.509h1.644a4.179,4.179,0,0,0,4.179-4.179v-2.2a5.494,5.494,0,0,0-5.424-5.791l-.4,1.4a3.3,3.3,0,0,0-3.286,3.286v4.2a3.3,3.3,0,0,0,3.286,3.286" transform="translate(-280.693 -612.776)"/>
          <path id="路径_1146-2" data-name="路径 1146" class="cls-1" d="M258.424,655.24H246.638a1.453,1.453,0,0,1-1.448-1.448v-7.873a2.907,2.907,0,0,1,2.9-2.9h9.245a2.907,2.907,0,0,1,2.9,2.9v7.515a1.814,1.814,0,0,1-1.808,1.806" transform="translate(-241.556 -612.507)"/>
          <path id="路径_1147-2" data-name="路径 1147" class="cls-9" d="M280.231,607.609h0a5.206,5.206,0,0,1-2.3-.584v-5.464a2.3,2.3,0,0,1,4.6,0v5.464a5.223,5.223,0,0,1-2.3.584" transform="translate(-269.076 -575.724)"/>
          <path id="路径_1148-2" data-name="路径 1148" class="cls-10" d="M280.231,599.99a2.307,2.307,0,0,0-2.3,2.3v3.624a7.046,7.046,0,0,0,4.6-.466v-3.157a2.307,2.307,0,0,0-2.3-2.3" transform="translate(-269.076 -576.338)"/>
          <path id="路径_1149-2" data-name="路径 1149" class="cls-6" d="M258.6,533.3c0,4.946-3.54,8.954-7.905,8.954s-7.905-4.008-7.905-8.954,3.54-8.352,7.905-8.352,7.905,3.406,7.905,8.352" transform="translate(-239.539 -513.263)"/>
          <path id="路径_1150-2" data-name="路径 1150" class="cls-9" d="M264.216,551.68c0-.142,0-.284-.01-.424,0-.042,0-.083-.006-.126-.006-.1-.013-.209-.021-.311l-.01-.105c-.013-.128-.025-.254-.043-.378v0a8.535,8.535,0,0,0-1.288-3.511,9.908,9.908,0,0,1,.761,3.823c0,4.946-3.54,8.955-7.905,8.955a7.6,7.6,0,0,1-6.223-3.438h0a9.006,9.006,0,0,0,.885,1.4.04.04,0,0,0,.008.01,8.616,8.616,0,0,0,.711.812l0,0c.12.12.242.234.368.346.013.011.024.021.035.032a7.779,7.779,0,0,0,.81.624l.053.033c.121.08.244.156.368.228l.078.045a7.3,7.3,0,0,0,.88.424l.1.038c.118.046.238.088.359.128l.12.038c.151.046.3.089.459.126l0,0c.156.037.314.065.474.091.045.008.089.013.134.019.12.018.239.03.36.041.048,0,.094.01.142.013.163.011.325.019.49.019a7.194,7.194,0,0,0,4.1-1.3,8.625,8.625,0,0,0,2.852-3.39q.182-.38.333-.783a9.959,9.959,0,0,0,.622-3.485v0Z" transform="translate(-245.154 -531.645)"/>
          <path id="路径_1151-2" data-name="路径 1151" class="cls-11" d="M243.09,542.389s-.022-3.057,1.915-4.233,6.049-.515,7.467-3.4a8.112,8.112,0,0,0,3.686,3.06c2.121.631,2.433,4.1,2.433,4.1a15.774,15.774,0,0,0-.035-4.1c-.317-2.21-4.949-5.145-10.077-4.032s-6.076,3.332-5.389,8.6" transform="translate(-239.625 -520.485)"/>
          <path id="路径_1152-2" data-name="路径 1152" class="cls-1" d="M234.34,487.98l1.421,12.386a9.929,9.929,0,0,1,7.733-3.336,10.442,10.442,0,0,1,7.968,3.334l1.185-12.384Z" transform="translate(-232.436 -482.187)"/>
          <path id="路径_1153-2" data-name="路径 1153" class="cls-8" d="M235.684,490.3a3.014,3.014,0,0,0,3.841-.024,4.6,4.6,0,0,0,8.007-.115,3.009,3.009,0,0,0,3.965.137,4.036,4.036,0,0,0,.864.638l.285-2.978H234.34l.341,2.969a1.8,1.8,0,0,0,1-.627" transform="translate(-232.436 -482.171)"/>
          <path id="路径_1154-2" data-name="路径 1154" class="cls-11" d="M278.66,595.3a4.514,4.514,0,0,1-1.293,1.473,3.547,3.547,0,0,1-.9.47,3.047,3.047,0,0,1-2.028,0,3.536,3.536,0,0,1-.9-.47,4.515,4.515,0,0,1-1.293-1.473,7.577,7.577,0,0,0,1.484,1.175,3.274,3.274,0,0,0,3.439,0,7.544,7.544,0,0,0,1.486-1.175" transform="translate(-264.302 -572.396)"/>
          <path id="路径_1155-2" data-name="路径 1155" class="cls-12" d="M287.56,583.819a.945.945,0,0,1-.855-.429.48.48,0,0,0-.056.214c0,.356.406.644.91.644s.909-.289.909-.644a.48.48,0,0,0-.056-.214.94.94,0,0,1-.853.429" transform="translate(-276.406 -562.385)"/>
          <path id="路径_1156-2" data-name="路径 1156" class="cls-11" d="M261.255,566.036a1.092,1.092,0,0,1-.018-.748.937.937,0,0,1,.218-.362.628.628,0,0,1,.912,0,.924.924,0,0,1,.218.362,1.088,1.088,0,0,1-.019.749,3.155,3.155,0,0,0-.3-.593.9.9,0,0,0-.183-.195.31.31,0,0,0-.169-.064.3.3,0,0,0-.169.064.839.839,0,0,0-.183.2,2.868,2.868,0,0,0-.3.59" transform="translate(-254.996 -546.7)"/>
          <path id="路径_1157-2" data-name="路径 1157" class="cls-11" d="M314.435,566.036a1.093,1.093,0,0,1-.018-.748.938.938,0,0,1,.218-.362.628.628,0,0,1,.912,0,.908.908,0,0,1,.219.362,1.1,1.1,0,0,1-.018.749,3.072,3.072,0,0,0-.3-.593.865.865,0,0,0-.183-.195.311.311,0,0,0-.169-.064.3.3,0,0,0-.169.064.843.843,0,0,0-.183.2,2.877,2.877,0,0,0-.3.59" transform="translate(-299.697 -546.7)"/>
          <path id="路径_1158-2" data-name="路径 1158" class="cls-1" d="M242.881,455.617a1.84,1.84,0,0,0-.367.037,3.015,3.015,0,0,0-5.019-1.606,4.6,4.6,0,0,0-8.007-.115,3.018,3.018,0,0,0-4.9,1.719,1.847,1.847,0,0,0-.367-.037,1.826,1.826,0,1,0,1.419,2.972,3.014,3.014,0,0,0,3.841-.024,4.6,4.6,0,0,0,8.007-.115,3.008,3.008,0,0,0,3.965.139,1.825,1.825,0,1,0,1.422-2.971" transform="translate(-222.4 -451.65)"/>
          <path id="路径_1159-2" data-name="路径 1159" class="cls-8" d="M261.642,676.178h9.548a2.769,2.769,0,0,0,.464-.042V667.93H261.64v8.248Z" transform="translate(-255.384 -633.445)"/>
          <path id="路径_1160-2" data-name="路径 1160" class="cls-1" d="M266.03,676.178h8.851a2.769,2.769,0,0,0,.464-.042V667.93l-9.315.92Z" transform="translate(-259.073 -633.445)"/>
          <path id="路径_1161-2" data-name="路径 1161" class="cls-8" d="M272.7,679.074a.6.6,0,1,1-.6-.6.6.6,0,0,1,.6.6" transform="translate(-263.663 -642.305)"/>
          <path id="路径_1162-2" data-name="路径 1162" class="cls-8" d="M272.7,693.7a.6.6,0,1,1-.6-.6.6.6,0,0,1,.6.6" transform="translate(-263.663 -654.602)"/>
          <path id="路径_1163-2" data-name="路径 1163" class="cls-8" d="M272.7,708.333a.6.6,0,1,1-.6-.6.6.6,0,0,1,.6.6" transform="translate(-263.663 -666.899)"/>
        </g>
      </g>
    </g>
  </g>
</svg>
