<svg xmlns="http://www.w3.org/2000/svg" xmlns:xlink="http://www.w3.org/1999/xlink" width="22" height="22" viewBox="0 0 22 22">
  <defs>
    <style>
      .cls-1 {
        fill: #fff;
        stroke: #707070;
      }

      .cls-2 {
        clip-path: url(#clip-path);
      }

      .cls-3 {
        fill: #ccc;
      }
    </style>
    <clipPath id="clip-path">
      <rect id="矩形_511" data-name="矩形 511" class="cls-1" width="22" height="22" transform="translate(320 235)"/>
    </clipPath>
  </defs>
  <g id="mengbanzu284" class="cls-2" transform="translate(-320 -235)">
    <path id="路径_1178" data-name="路径 1178" class="cls-3" d="M94.206,73.722H90.578c1.408-5.193-.969-5.455-.969-5.455-1.009,0-.8.792-.871.93,0,2.541-2.7,4.525-2.7,4.525v7.2c0,.714.969.969,1.349.969h5.449c.511,0,.93-1.343.93-1.343,1.349-4.584,1.349-5.946,1.349-5.946a.822.822,0,0,0-.91-.878Zm-9.653,0H82.379a.447.447,0,0,0-.458.439l.445,7.263a.455.455,0,0,0,.465.465h1.886c.393,0,.386-.308.386-.308V74.272a.533.533,0,0,0-.55-.55Zm0,0" transform="translate(243.08 171.733)"/>
  </g>
</svg>
