<svg xmlns="http://www.w3.org/2000/svg" xmlns:xlink="http://www.w3.org/1999/xlink" width="58" height="58" viewBox="0 0 58 58">
  <defs>
    <style>
      .cls-1 {
        fill: #ddd;
      }

      .cls-2 {
        clip-path: url(#clip-path);
      }

      .cls-3 {
        fill: #ffc39b;
      }

      .cls-4 {
        fill: #eca782;
      }

      .cls-5 {
        fill: #dbdbdb;
      }

      .cls-6 {
        fill: #fff;
      }

      .cls-7 {
        fill: #ffb58e;
      }

      .cls-8 {
        fill: #e19e7d;
      }

      .cls-9 {
        fill: #572129;
      }

      .cls-10 {
        fill: #d99878;
      }
    </style>
    <clipPath id="clip-path">
      <circle id="椭圆_25" data-name="椭圆 25" class="cls-1" cx="29" cy="29" r="29" transform="translate(1201 -302)"/>
    </clipPath>
  </defs>
  <g id="Zu428" transform="translate(-15 -43)">
    <circle id="椭圆_24" data-name="椭圆 24" class="cls-1" cx="29" cy="29" r="29" transform="translate(15 43)"/>
    <g id="蒙版组_83" data-name="蒙版组 83" class="cls-2" transform="translate(-1186 345)">
      <g id="组_427" data-name="组 427" transform="translate(-104 -1258.787)">
        <path id="路径_1138" data-name="路径 1138" class="cls-3" d="M236.6,568.622a2.037,2.037,0,0,1-1.034,2.52c-.831.218-1.718-.555-1.979-1.728a2.037,2.037,0,0,1,1.034-2.52c.833-.22,1.72.555,1.979,1.728" transform="translate(1089.034 418.059)"/>
        <path id="路径_1139" data-name="路径 1139" class="cls-4" d="M237.986,571.465c.18.816-.041,1.135-.649,1.295s-1.376.1-1.558-.715a1.428,1.428,0,0,1,.777-1.766c.609-.162,1.25.369,1.43,1.187" transform="translate(1087.246 415.322)"/>
        <path id="路径_1140" data-name="路径 1140" class="cls-3" d="M241.469,575.3a.671.671,0,1,1-.649-.5.589.589,0,0,1,.649.5" transform="translate(1083.664 411.651)"/>
        <path id="路径_1141" data-name="路径 1141" class="cls-3" d="M335.1,568.622a2.037,2.037,0,0,0,1.034,2.52c.831.218,1.718-.555,1.977-1.728a2.037,2.037,0,0,0-1.034-2.52c-.831-.22-1.718.555-1.977,1.728" transform="translate(1007.142 418.059)"/>
        <path id="路径_1142" data-name="路径 1142" class="cls-4" d="M337.223,571.465c-.182.816.041,1.135.649,1.295s1.376.1,1.558-.715a1.43,1.43,0,0,0-.777-1.766c-.609-.162-1.25.369-1.43,1.187" transform="translate(1005.418 415.322)"/>
        <path id="路径_1143" data-name="路径 1143" class="cls-3" d="M337.99,575.3a.67.67,0,1,0,.647-.5.588.588,0,0,0-.647.5" transform="translate(1004.75 411.651)"/>
        <path id="路径_1144" data-name="路径 1144" class="cls-5" d="M242.8,658.09h-1.993a5.066,5.066,0,0,1-5.066-5.066v-2.665a6.659,6.659,0,0,1,6.575-7.019l.485,1.695a4,4,0,0,1,3.983,3.983v5.089a4,4,0,0,1-3.985,3.983" transform="translate(1087.238 356.357)"/>
        <path id="路径_1145" data-name="路径 1145" class="cls-5" d="M295.733,658.09h1.993a5.066,5.066,0,0,0,5.065-5.066v-2.665a6.659,6.659,0,0,0-6.575-7.019l-.483,1.695a3.994,3.994,0,0,0-3.983,3.983v5.089a3.994,3.994,0,0,0,3.983,3.983" transform="translate(1042.053 356.357)"/>
        <path id="路径_1146" data-name="路径 1146" class="cls-6" d="M261.231,657.832H246.945a1.761,1.761,0,0,1-1.755-1.755v-9.544a3.524,3.524,0,0,1,3.514-3.514h11.205a3.524,3.524,0,0,1,3.514,3.514v9.109a2.2,2.2,0,0,1-2.192,2.19" transform="translate(1079.615 356.615)"/>
        <path id="路径_1147" data-name="路径 1147" class="cls-7" d="M280.719,609.379h0a6.31,6.31,0,0,1-2.789-.707v-6.623a2.789,2.789,0,0,1,5.578,0v6.623a6.331,6.331,0,0,1-2.789.707" transform="translate(1053.202 391.918)"/>
        <path id="路径_1148" data-name="路径 1148" class="cls-8" d="M280.719,599.99a2.8,2.8,0,0,0-2.789,2.789v4.393a8.537,8.537,0,0,0,5.576-.564v-3.827a2.8,2.8,0,0,0-2.787-2.791" transform="translate(1053.202 391.329)"/>
        <path id="路径_1149" data-name="路径 1149" class="cls-3" d="M261.954,535.073c0,6-4.29,10.854-9.582,10.854s-9.582-4.859-9.582-10.854,4.29-10.123,9.582-10.123,9.582,4.128,9.582,10.123" transform="translate(1081.551 451.866)"/>
        <path id="路径_1150" data-name="路径 1150" class="cls-7" d="M267.343,552.711c0-.172,0-.344-.012-.514,0-.05-.006-.1-.008-.153-.008-.126-.015-.253-.025-.377l-.012-.128c-.015-.155-.031-.307-.052-.458v-.006a10.346,10.346,0,0,0-1.562-4.256,12.01,12.01,0,0,1,.922,4.635c0,6-4.291,10.854-9.582,10.854a9.211,9.211,0,0,1-7.543-4.167h0a10.9,10.9,0,0,0,1.073,1.7.049.049,0,0,0,.01.012,10.471,10.471,0,0,0,.862.984l.006.006c.145.145.294.284.446.419.016.014.029.025.043.039a9.4,9.4,0,0,0,.982.756l.064.041c.147.1.3.189.446.276l.095.054a8.853,8.853,0,0,0,1.067.514l.124.046c.143.056.288.106.435.154l.145.046c.184.056.369.108.557.153l.006,0c.189.044.381.079.574.11.054.01.108.015.162.023.145.021.29.037.437.05.058.006.114.012.172.015.2.014.394.023.593.023a8.721,8.721,0,0,0,4.969-1.571,10.456,10.456,0,0,0,3.458-4.109q.22-.461.4-.949a12.071,12.071,0,0,0,.754-4.225v0Z" transform="translate(1076.162 434.223)"/>
        <path id="路径_1151" data-name="路径 1151" class="cls-9" d="M243.132,544.266s-.027-3.705,2.321-5.131,7.332-.624,9.051-4.118c0,0,1.9,2.943,4.468,3.709s2.949,4.969,2.949,4.969a19.122,19.122,0,0,0-.043-4.969c-.385-2.679-6-6.237-12.214-4.888s-7.365,4.039-6.532,10.429" transform="translate(1081.468 444.935)"/>
        <path id="路径_1152" data-name="路径 1152" class="cls-6" d="M234.34,487.98l1.722,15.013a12.035,12.035,0,0,1,9.373-4.043,12.657,12.657,0,0,1,9.657,4.041l1.436-15.011Z" transform="translate(1088.367 481.691)"/>
        <path id="路径_1153" data-name="路径 1153" class="cls-5" d="M235.969,490.8a3.653,3.653,0,0,0,4.656-.029,5.57,5.57,0,0,0,9.706-.139,3.648,3.648,0,0,0,4.806.166,4.9,4.9,0,0,0,1.048.773l.346-3.61H234.34l.414,3.6a2.184,2.184,0,0,0,1.216-.759" transform="translate(1088.367 481.708)"/>
        <path id="路径_1154" data-name="路径 1154" class="cls-9" d="M280.019,595.3a5.47,5.47,0,0,1-1.567,1.786,4.292,4.292,0,0,1-1.088.57,3.692,3.692,0,0,1-2.458,0,4.288,4.288,0,0,1-1.088-.57,5.471,5.471,0,0,1-1.567-1.786,9.176,9.176,0,0,0,1.8,1.424,3.968,3.968,0,0,0,4.169,0,9.131,9.131,0,0,0,1.8-1.424" transform="translate(1057.784 395.113)"/>
        <path id="路径_1155" data-name="路径 1155" class="cls-10" d="M287.753,583.91a1.145,1.145,0,0,1-1.036-.52.581.581,0,0,0-.068.259c0,.431.493.781,1.1.781s1.1-.35,1.1-.781a.581.581,0,0,0-.068-.259,1.139,1.139,0,0,1-1.034.52" transform="translate(1046.167 404.721)"/>
        <path id="路径_1156" data-name="路径 1156" class="cls-9" d="M261.271,566.313a1.325,1.325,0,0,1-.021-.906,1.138,1.138,0,0,1,.265-.439.761.761,0,0,1,1.105,0,1.122,1.122,0,0,1,.265.439,1.32,1.32,0,0,1-.023.909,3.817,3.817,0,0,0-.367-.719,1.091,1.091,0,0,0-.222-.236.376.376,0,0,0-.2-.077.361.361,0,0,0-.2.077,1.015,1.015,0,0,0-.222.237,3.481,3.481,0,0,0-.369.715" transform="translate(1066.715 419.774)"/>
        <path id="路径_1157" data-name="路径 1157" class="cls-9" d="M314.451,566.313a1.325,1.325,0,0,1-.021-.906,1.137,1.137,0,0,1,.265-.439.761.761,0,0,1,1.105,0,1.1,1.1,0,0,1,.265.439,1.331,1.331,0,0,1-.021.909,3.715,3.715,0,0,0-.369-.719,1.047,1.047,0,0,0-.222-.236.376.376,0,0,0-.2-.077.361.361,0,0,0-.2.077,1.015,1.015,0,0,0-.222.237,3.478,3.478,0,0,0-.369.715" transform="translate(1023.813 419.774)"/>
        <path id="路径_1158" data-name="路径 1158" class="cls-6" d="M247.225,456.458a2.234,2.234,0,0,0-.445.044,3.655,3.655,0,0,0-6.084-1.946,5.57,5.57,0,0,0-9.706-.139,3.658,3.658,0,0,0-5.933,2.083,2.213,2.213,0,1,0-.445,4.381,2.2,2.2,0,0,0,1.72-.823,3.653,3.653,0,0,0,4.656-.029,5.57,5.57,0,0,0,9.706-.139,3.645,3.645,0,0,0,4.807.168,2.212,2.212,0,1,0,1.724-3.6" transform="translate(1098 511)"/>
        <path id="路径_1159" data-name="路径 1159" class="cls-5" d="M261.642,677.928h11.573a3.372,3.372,0,0,0,.562-.05V667.93H261.64v10Z" transform="translate(1066.344 336.519)"/>
        <path id="路径_1160" data-name="路径 1160" class="cls-6" d="M266.03,677.928h10.728a3.371,3.371,0,0,0,.562-.05V667.93l-11.291,1.115Z" transform="translate(1062.802 336.519)"/>
        <path id="路径_1161" data-name="路径 1161" class="cls-5" d="M272.955,679.2a.732.732,0,1,1-.732-.732.733.733,0,0,1,.732.732" transform="translate(1058.397 328.016)"/>
        <path id="路径_1162" data-name="路径 1162" class="cls-5" d="M272.955,693.832a.732.732,0,1,1-.732-.732.733.733,0,0,1,.732.732" transform="translate(1058.397 316.214)"/>
        <path id="路径_1163" data-name="路径 1163" class="cls-5" d="M272.955,708.461a.732.732,0,1,1-.732-.731.733.733,0,0,1,.732.731" transform="translate(1058.397 304.411)"/>
      </g>
    </g>
  </g>
</svg>
