<svg xmlns="http://www.w3.org/2000/svg" xmlns:xlink="http://www.w3.org/1999/xlink" width="18" height="18" viewBox="0 0 18 18">
  <defs>
    <style>
      .cls-1 {
        fill: #fff;
        stroke: #707070;
      }

      .cls-2 {
        clip-path: url(#clip-path);
      }

      .cls-3 {
        fill: #ee7b2d;
      }
    </style>
    <clipPath id="clip-path">
      <rect id="矩形_570" data-name="矩形 570" class="cls-1" width="18" height="18" transform="translate(90 491)"/>
    </clipPath>
  </defs>
  <g id="shijian" class="cls-2" transform="translate(-90 -491)">
    <path id="路径_1272" data-name="路径 1272" class="cls-3" d="M11.681,1.925a6.827,6.827,0,1,0,0,9.655,6.827,6.827,0,0,0,0-9.655Zm-.629,9.025a5.939,5.939,0,1,1-.1-8.295A5.939,5.939,0,0,1,11.051,10.95ZM9.8,8.424,7.443,7.059V3.339a.569.569,0,0,0-1.137,0V7.321c0,.211.262.388.433.486a.84.84,0,0,0,.256.181L9.342,9.41a.509.509,0,0,0,.724-.208A.587.587,0,0,0,9.8,8.425Zm0,0" transform="translate(92.522 493.075)"/>
  </g>
</svg>
