<svg xmlns="http://www.w3.org/2000/svg" xmlns:xlink="http://www.w3.org/1999/xlink" width="18" height="18" viewBox="0 0 18 18">
  <defs>
    <style>
      .cls-1 {
        fill: #fff;
        stroke: #707070;
      }

      .cls-2 {
        clip-path: url(#clip-path);
      }

      .cls-3 {
        fill: #f7cbae;
      }

      .cls-4 {
        fill: #ee7b2d;
      }
    </style>
    <clipPath id="clip-path">
      <rect id="矩形_571" data-name="矩形 571" class="cls-1" width="18" height="18" transform="translate(199 491)"/>
    </clipPath>
  </defs>
  <g id="xing_" data-name="xing " class="cls-2" transform="translate(-199 -491)">
    <g id="组_525" data-name="组 525" transform="translate(200.306 493)">
      <path id="路径_1273" data-name="路径 1273" class="cls-3" d="M68.913,93.788c-.463.528-1.282,1.4-1.282,1.4s.134.957.209,1.611c.033.333-.224.477-.514.348-.553-.26-1.395-.663-1.584-.754l-1.6.745c-.294.129-.554-.014-.521-.347.076-.653.211-1.609.211-1.609s-.829-.87-1.3-1.4c-.166-.191-.059-.464.267-.514.666-.118,1.7-.305,1.7-.305s.565-.974.922-1.571c.2-.363.332-.321.356-.31.061.019.156.09.281.311.353.6.911,1.573.911,1.573s1.02.188,1.679.306c.323.05.428.323.264.515Zm0,0" transform="translate(-58.715 -91.077)"/>
      <g id="组_524" data-name="组 524" transform="translate(0 6.67)">
        <path id="路径_1274" data-name="路径 1274" class="cls-4" d="M68.913,93.788c-.463.528-1.282,1.4-1.282,1.4s.134.957.209,1.611c.033.333-.224.477-.514.348-.553-.26-1.395-.663-1.584-.754l-1.6.745c-.294.129-.554-.014-.521-.347.076-.653.211-1.609.211-1.609s-.829-.87-1.3-1.4c-.166-.191-.059-.464.267-.514.666-.118,1.7-.305,1.7-.305s.565-.974.922-1.571c.2-.363.332-.321.356-.31.061.019.156.09.281.311.353.6.911,1.573.911,1.573s1.02.188,1.679.306c.323.05.428.323.264.515Zm0,0" transform="translate(-62.456 -91.077)"/>
        <g id="组_523" data-name="组 523" transform="translate(7.484 0)">
          <path id="路径_1275" data-name="路径 1275" class="cls-3" d="M68.913,93.788c-.463.528-1.282,1.4-1.282,1.4s.134.957.209,1.611c.033.333-.224.477-.514.348-.553-.26-1.395-.663-1.584-.754l-1.6.745c-.294.129-.554-.014-.521-.347.076-.653.211-1.609.211-1.609s-.829-.87-1.3-1.4c-.166-.191-.059-.464.267-.514.666-.118,1.7-.305,1.7-.305s.565-.974.922-1.571c.2-.363.332-.321.356-.31.061.019.156.09.281.311.353.6.911,1.573.911,1.573s1.02.188,1.679.306c.323.05.428.323.264.515Zm0,0" transform="translate(-62.456 -91.077)"/>
        </g>
      </g>
    </g>
  </g>
</svg>
