<svg xmlns="http://www.w3.org/2000/svg" xmlns:xlink="http://www.w3.org/1999/xlink" width="25" height="25" viewBox="0 0 25 25">
  <defs>
    <style>
      .cls-1, .cls-3 {
        fill: #fff;
      }

      .cls-1 {
        stroke: #707070;
      }

      .cls-2 {
        clip-path: url(#clip-path);
      }

      .cls-3 {
        stroke: #fff;
        stroke-width: 0.5px;
      }
    </style>
    <clipPath id="clip-path">
      <rect id="矩形_561" data-name="矩形 561" class="cls-1" width="25" height="25" transform="translate(299 90)"/>
    </clipPath>
  </defs>
  <g id="xuhuan" class="cls-2" transform="translate(-299 -90)">
    <path id="路径_1265" data-name="路径 1265" class="cls-3" d="M81.423,101.719c-.01.134-.02.268-.03.4a5.367,5.367,0,0,1-.547,1.966A13.042,13.042,0,0,1,79,106.852a30.552,30.552,0,0,1-2.542,2.583c-.856.783-1.743,1.53-2.652,2.252a1.022,1.022,0,0,1-.762.249.989.989,0,0,1-.521-.22,42.628,42.628,0,0,1-4.6-4.152,14.94,14.94,0,0,1-2.142-2.833A6.487,6.487,0,0,1,65,102.792c-.055-.277-.077-.56-.115-.84,0-.029-.008-.058-.013-.087v-.47c.005-.031.013-.063.016-.094.013-.134.019-.269.038-.4a5.194,5.194,0,0,1,1.12-2.612,4.437,4.437,0,0,1,3.138-1.7,4.161,4.161,0,0,1,1.925.289,4.589,4.589,0,0,1,1.8,1.29c.081.093.157.19.241.292.024-.029.044-.054.063-.079A4.678,4.678,0,0,1,74.706,97.1a4.208,4.208,0,0,1,2.762-.469,4.445,4.445,0,0,1,2.767,1.646,5.2,5.2,0,0,1,1.159,2.906c.011.131.02.263.029.394Q81.423,101.647,81.423,101.719Zm-.783-.155c-.012-.161-.019-.323-.037-.484a4.1,4.1,0,0,0-1.039-2.373,3.518,3.518,0,0,0-5.194-.168,4.261,4.261,0,0,0-.919,1.4.321.321,0,0,1-.61,0,4.317,4.317,0,0,0-.736-1.2,3.534,3.534,0,0,0-2.595-1.259A3.355,3.355,0,0,0,67,98.435a4.2,4.2,0,0,0-1.243,4.026,5.385,5.385,0,0,0,.668,1.642,14.3,14.3,0,0,0,2.169,2.849,44.262,44.262,0,0,0,4.475,4.031.1.1,0,0,0,.154,0c.884-.7,1.749-1.432,2.585-2.193a30.638,30.638,0,0,0,2.6-2.622,12.025,12.025,0,0,0,1.824-2.773,4.436,4.436,0,0,0,.413-1.831Z" transform="translate(237.332 -2.179)"/>
  </g>
</svg>
