<svg xmlns="http://www.w3.org/2000/svg" xmlns:xlink="http://www.w3.org/1999/xlink" width="25" height="25" viewBox="0 0 25 25">
  <defs>
    <style>
      .cls-1, .cls-3 {
        fill: #fff;
      }

      .cls-1 {
        stroke: #707070;
      }

      .cls-2 {
        clip-path: url(#clip-path);
      }
    </style>
    <clipPath id="clip-path">
      <rect id="矩形_584" data-name="矩形 584" class="cls-1" width="25" height="25" transform="translate(331 90)"/>
    </clipPath>
  </defs>
  <g id="zhuanfa" class="cls-2" transform="translate(-331 -90)">
    <path id="路径_1338" data-name="路径 1338" class="cls-3" d="M71.8,64a.664.664,0,1,1,0,1.328,6.479,6.479,0,1,0,6.48,6.479.663.663,0,1,1,1.326,0A7.806,7.806,0,1,1,71.8,64Zm4.018,3.319a.652.652,0,0,1,.927-.917l1.143,1.143a.881.881,0,0,1,0,1.248L76.75,69.937a.652.652,0,0,1-.922-.922l.193-.193H75.18c-2.288,0-3.065.974-3.065,3.921a.652.652,0,0,1-1.3,0c0-3.644,1.33-5.224,4.368-5.224h.842Z" transform="translate(272.151 30.387)"/>
  </g>
</svg>
