<svg xmlns="http://www.w3.org/2000/svg" xmlns:xlink="http://www.w3.org/1999/xlink" width="20" height="20" viewBox="0 0 20 20">
  <defs>
    <style>
      .cls-1 {
        fill: #fff;
        stroke: #707070;
      }

      .cls-2 {
        clip-path: url(#clip-path);
      }

      .cls-3 {
        fill: url(#linear-gradient);
      }

      .cls-4 {
        fill: #686868;
        stroke: rgba(0,0,0,0);
      }
    </style>
    <clipPath id="clip-path">
      <circle id="椭圆_53" data-name="椭圆 53" class="cls-1" cx="10" cy="10" r="10" transform="translate(44 260)"/>
    </clipPath>
    <linearGradient id="linear-gradient" x1="0.5" x2="0.5" y2="1" gradientUnits="objectBoundingBox">
      <stop offset="0" stop-color="#e5b293"/>
      <stop offset="1" stop-color="#f5dcc3"/>
    </linearGradient>
  </defs>
  <g id="mengbanzu254" class="cls-2" transform="translate(-44 -260)">
    <g id="组_481" data-name="组 481" transform="translate(45 261.136)">
      <ellipse id="椭圆_28" data-name="椭圆 28" class="cls-3" cx="9.378" cy="9.39" rx="9.378" ry="9.39"/>
      <g id="组_436" data-name="组 436" transform="translate(2.865 2.492)">
        <path id="路径_1171" data-name="路径 1171" class="cls-4" d="M96.985,72.385a4.75,4.75,0,1,0-8.084-.54l-2.4,3.732,2.636.333,2,2.171,1.785-3.691c.05,0,.1.007.152.007l1.776,3.753,1.634-2.267h2.647ZM93.11,65.6a4.055,4.055,0,1,1-4.055,4.055A4.059,4.059,0,0,1,93.11,65.6ZM90.957,76.858l-1.482-1.607-1.792-.226,1.629-2.533a4.753,4.753,0,0,0,2.878,1.816Zm5.174-1.671-1.153,1.6-1.159-2.446a4.737,4.737,0,0,0,2.7-1.39l1.374,2.236Z" transform="translate(-86.5 -64.9)"/>
        <path id="路径_1172" data-name="路径 1172" class="cls-4" d="M356.457,211.714a2.657,2.657,0,1,0-2.657-2.657A2.66,2.66,0,0,0,356.457,211.714Zm0-4.618a1.961,1.961,0,1,1-1.961,1.961A1.963,1.963,0,0,1,356.457,207.1Z" transform="translate(-349.847 -204.308)"/>
      </g>
    </g>
  </g>
</svg>
