<svg xmlns="http://www.w3.org/2000/svg" xmlns:xlink="http://www.w3.org/1999/xlink" width="64" height="64" viewBox="0 0 64 64">
  <defs>
    <style>
      .cls-1 {
        fill: #fff;
      }

      .cls-2 {
        fill: #ddd;
      }

      .cls-3 {
        clip-path: url(#clip-path);
      }

      .cls-4 {
        fill: url(#linear-gradient);
      }

      .cls-5 {
        clip-path: url(#clip-path-2);
      }

      .cls-6 {
        fill: #ffc39b;
      }

      .cls-7 {
        fill: #eca782;
      }

      .cls-8 {
        fill: #dbdbdb;
      }

      .cls-9 {
        fill: #ffb58e;
      }

      .cls-10 {
        fill: #e19e7d;
      }

      .cls-11 {
        fill: #572129;
      }

      .cls-12 {
        fill: #d99878;
      }
    </style>
    <clipPath id="clip-path">
      <circle id="椭圆_25" data-name="椭圆 25" class="cls-1" cx="32" cy="32" r="32"/>
    </clipPath>
    <linearGradient id="linear-gradient" x1="0.5" x2="0.5" y2="1" gradientUnits="objectBoundingBox">
      <stop offset="0" stop-color="#e5b293"/>
      <stop offset="1" stop-color="#f5dcc3"/>
    </linearGradient>
    <clipPath id="clip-path-2">
      <circle id="椭圆_25-2" data-name="椭圆 25" class="cls-2" cx="27" cy="27" r="27" transform="translate(0.259 0.259)"/>
    </clipPath>
  </defs>
  <g id="zu431" transform="translate(-167.5 -137.175)">
    <g id="组_430" data-name="组 430" transform="translate(167.5 137.175)">
      <circle id="椭圆_24" data-name="椭圆 24" class="cls-1" cx="32" cy="32" r="32"/>
      <g id="蒙版组_83" data-name="蒙版组 83" class="cls-3" transform="translate(0 0)">
        <g id="组_427" data-name="组 427" transform="translate(16.175 6.506)">
          <path id="路径_1138" data-name="路径 1138" class="cls-1" d="M236.874,568.778c.284,1.277-.221,2.506-1.126,2.744s-1.871-.6-2.155-1.881.221-2.506,1.126-2.744,1.873.6,2.155,1.881" transform="translate(-231.175 -542.614)"/>
          <path id="路径_1139" data-name="路径 1139" class="cls-1" d="M238.186,571.573c.2.888-.044,1.235-.707,1.41s-1.5.109-1.7-.779a1.555,1.555,0,0,1,.846-1.923c.663-.177,1.361.4,1.557,1.292" transform="translate(-232.925 -545.292)"/>
          <path id="路径_1140" data-name="路径 1140" class="cls-1" d="M241.584,575.347a.73.73,0,1,1-.707-.547.641.641,0,0,1,.707.547" transform="translate(-236.431 -548.886)"/>
          <path id="路径_1141" data-name="路径 1141" class="cls-1" d="M335.1,568.778c-.284,1.277.221,2.506,1.126,2.744s1.871-.6,2.153-1.881-.221-2.506-1.126-2.744-1.871.6-2.153,1.881" transform="translate(-311.325 -542.614)"/>
          <path id="路径_1142" data-name="路径 1142" class="cls-1" d="M337.229,571.573c-.2.888.044,1.235.707,1.41s1.5.109,1.7-.779a1.557,1.557,0,0,0-.846-1.923c-.663-.177-1.362.4-1.557,1.292" transform="translate(-313.013 -545.292)"/>
          <path id="路径_1143" data-name="路径 1143" class="cls-1" d="M337.99,575.347a.729.729,0,1,0,.7-.547.641.641,0,0,0-.7.547" transform="translate(-313.667 -548.886)"/>
          <path id="路径_1144" data-name="路径 1144" class="cls-1" d="M243.425,659.4h-2.17a5.515,5.515,0,0,1-5.515-5.516v-2.9a7.251,7.251,0,0,1,7.159-7.643l.528,1.845a4.35,4.35,0,0,1,4.337,4.337v5.541a4.353,4.353,0,0,1-4.339,4.337" transform="translate(-232.933 -603.003)"/>
          <path id="路径_1145" data-name="路径 1145" class="cls-1" d="M296.087,659.4h2.169a5.515,5.515,0,0,0,5.515-5.516v-2.9a7.251,7.251,0,0,0-7.159-7.643l-.526,1.845a4.349,4.349,0,0,0-4.337,4.337v5.541a4.349,4.349,0,0,0,4.337,4.337" transform="translate(-277.157 -603.003)"/>
          <path id="路径_1146" data-name="路径 1146" class="cls-1" d="M262.655,659.147H247.1a1.917,1.917,0,0,1-1.911-1.911V646.846a3.837,3.837,0,0,1,3.826-3.826h12.2a3.837,3.837,0,0,1,3.826,3.826v9.917a2.4,2.4,0,0,1-2.386,2.384" transform="translate(-240.394 -602.751)"/>
          <path id="路径_1147" data-name="路径 1147" class="cls-1" d="M280.966,610.278h0a6.871,6.871,0,0,1-3.036-.77V602.3a3.036,3.036,0,1,1,6.073,0v7.211a6.894,6.894,0,0,1-3.036.77" transform="translate(-266.245 -568.199)"/>
          <path id="路径_1148" data-name="路径 1148" class="cls-1" d="M280.966,599.99a3.044,3.044,0,0,0-3.036,3.037v4.783A9.3,9.3,0,0,0,284,607.2v-4.167a3.044,3.044,0,0,0-3.034-3.039" transform="translate(-266.245 -568.775)"/>
          <path id="路径_1149" data-name="路径 1149" class="cls-1" d="M263.656,535.972c0,6.527-4.671,11.817-10.433,11.817s-10.433-5.29-10.433-11.817,4.672-11.022,10.433-11.022,10.433,4.495,10.433,11.022" transform="translate(-238.499 -509.526)"/>
          <path id="路径_1150" data-name="路径 1150" class="cls-1" d="M268.93,553.234c0-.187,0-.375-.013-.56,0-.055-.006-.109-.008-.166-.008-.137-.017-.275-.027-.41l-.013-.139c-.017-.168-.034-.335-.057-.5v-.006a11.265,11.265,0,0,0-1.7-4.634,13.078,13.078,0,0,1,1,5.046c0,6.528-4.672,11.818-10.433,11.818a10.028,10.028,0,0,1-8.213-4.537h0a11.865,11.865,0,0,0,1.168,1.848.053.053,0,0,0,.011.013,11.4,11.4,0,0,0,.938,1.071l.006.006c.158.158.32.309.486.457.017.015.032.027.046.042a10.224,10.224,0,0,0,1.069.823l.069.044c.16.105.322.206.486.3l.1.059a9.588,9.588,0,0,0,1.162.56l.135.051c.156.061.314.116.473.168l.158.051c.2.061.4.118.606.166l.006,0c.206.048.415.086.625.12.059.01.118.017.177.025.158.023.316.04.476.055.063.006.124.013.187.017.215.015.429.025.646.025a9.5,9.5,0,0,0,5.41-1.711,11.386,11.386,0,0,0,3.765-4.474q.24-.5.44-1.033a13.142,13.142,0,0,0,.821-4.6v0Z" transform="translate(-243.774 -526.794)"/>
          <path id="路径_1151" data-name="路径 1151" class="cls-1" d="M243.153,545.218s-.029-4.034,2.527-5.587,7.984-.68,9.854-4.484c0,0,2.066,3.2,4.865,4.038s3.211,5.41,3.211,5.41a20.822,20.822,0,0,0-.046-5.41c-.419-2.917-6.532-6.79-13.3-5.322s-8.019,4.4-7.112,11.355" transform="translate(-238.58 -516.31)"/>
          <path id="路径_1152" data-name="路径 1152" class="cls-1" d="M234.34,487.98l1.875,16.346a13.1,13.1,0,0,1,10.206-4.4c4.228,0,8.219,1.65,10.515,4.4L258.5,487.98Z" transform="translate(-231.828 -480.335)"/>
          <path id="路径_1153" data-name="路径 1153" class="cls-1" d="M236.114,491.051a3.978,3.978,0,0,0,5.069-.032,6.065,6.065,0,0,0,10.568-.151,3.972,3.972,0,0,0,5.233.181,5.333,5.333,0,0,0,1.14.842l.377-3.931H234.34l.45,3.918a2.378,2.378,0,0,0,1.324-.827" transform="translate(-231.828 -480.319)"/>
          <path id="路径_1154" data-name="路径 1154" class="cls-1" d="M280.709,595.3A5.953,5.953,0,0,1,279,597.244a4.667,4.667,0,0,1-1.185.621,4.019,4.019,0,0,1-2.677,0,4.666,4.666,0,0,1-1.185-.621,5.956,5.956,0,0,1-1.707-1.944,9.99,9.99,0,0,0,1.959,1.551,4.321,4.321,0,0,0,4.539,0,9.943,9.943,0,0,0,1.961-1.551" transform="translate(-261.76 -565.072)"/>
          <path id="路径_1155" data-name="路径 1155" class="cls-1" d="M287.851,583.956a1.246,1.246,0,0,1-1.128-.566.631.631,0,0,0-.074.282c0,.469.537.85,1.2.85s1.2-.381,1.2-.85a.631.631,0,0,0-.074-.282,1.24,1.24,0,0,1-1.126.566" transform="translate(-273.13 -555.668)"/>
          <path id="路径_1156" data-name="路径 1156" class="cls-1" d="M261.279,566.453a1.442,1.442,0,0,1-.023-.987,1.241,1.241,0,0,1,.288-.478.829.829,0,0,1,1.2,0,1.222,1.222,0,0,1,.288.478,1.437,1.437,0,0,1-.025.989,4.147,4.147,0,0,0-.4-.783,1.181,1.181,0,0,0-.242-.256.409.409,0,0,0-.223-.085.392.392,0,0,0-.223.085,1.1,1.1,0,0,0-.242.258,3.794,3.794,0,0,0-.4.779" transform="translate(-253.019 -540.935)"/>
          <path id="路径_1157" data-name="路径 1157" class="cls-1" d="M314.459,566.453a1.441,1.441,0,0,1-.023-.987,1.239,1.239,0,0,1,.288-.478.829.829,0,0,1,1.2,0,1.2,1.2,0,0,1,.288.478,1.45,1.45,0,0,1-.023.989,4.046,4.046,0,0,0-.4-.783,1.13,1.13,0,0,0-.242-.256.409.409,0,0,0-.223-.085.392.392,0,0,0-.223.085,1.1,1.1,0,0,0-.242.258,3.8,3.8,0,0,0-.4.779" transform="translate(-295.009 -540.935)"/>
          <path id="路径_1158" data-name="路径 1158" class="cls-1" d="M249.429,456.885a2.422,2.422,0,0,0-.484.049,3.979,3.979,0,0,0-6.624-2.119,6.065,6.065,0,0,0-10.568-.152,3.983,3.983,0,0,0-6.46,2.268,2.41,2.41,0,1,0,1.389,3.874,3.978,3.978,0,0,0,5.069-.032,6.065,6.065,0,0,0,10.568-.152,3.969,3.969,0,0,0,5.233.183,2.408,2.408,0,1,0,1.877-3.92" transform="translate(-222.4 -451.65)"/>
          <path id="路径_1159" data-name="路径 1159" class="cls-1" d="M261.642,678.815h12.6a3.676,3.676,0,0,0,.612-.055V667.93H261.64v10.885Z" transform="translate(-253.383 -622.419)"/>
          <path id="路径_1160" data-name="路径 1160" class="cls-1" d="M266.03,678.815h11.681a3.675,3.675,0,0,0,.612-.055V667.93l-12.293,1.214Z" transform="translate(-256.849 -622.419)"/>
          <path id="路径_1161" data-name="路径 1161" class="cls-1" d="M273.085,679.268a.8.8,0,1,1-.8-.8.8.8,0,0,1,.8.8" transform="translate(-261.16 -630.741)"/>
          <path id="路径_1162" data-name="路径 1162" class="cls-1" d="M273.085,693.9a.8.8,0,1,1-.8-.8.8.8,0,0,1,.8.8" transform="translate(-261.16 -642.292)"/>
          <path id="路径_1163" data-name="路径 1163" class="cls-1" d="M273.085,708.525a.8.8,0,1,1-.8-.8.8.8,0,0,1,.8.8" transform="translate(-261.16 -653.844)"/>
        </g>
      </g>
    </g>
    <g id="组_429" data-name="组 429" transform="translate(172.241 141.916)">
      <circle id="椭圆_24-2" data-name="椭圆 24" class="cls-4" cx="27" cy="27" r="27" transform="translate(0.259 0.259)"/>
      <g id="蒙版组_83-2" data-name="蒙版组 83" class="cls-5" transform="translate(0 0)">
        <g id="组_427-2" data-name="组 427" transform="translate(13.756 5.249)">
          <path id="路径_1138-2" data-name="路径 1138" class="cls-6" d="M236.485,568.556a1.962,1.962,0,0,1-1,2.427c-.8.21-1.654-.534-1.906-1.664a1.962,1.962,0,0,1,1-2.427c.8-.212,1.656.534,1.906,1.664" transform="translate(-231.446 -545.416)"/>
          <path id="路径_1139-2" data-name="路径 1139" class="cls-7" d="M237.9,571.42c.173.786-.039,1.093-.625,1.247s-1.325.1-1.5-.689a1.376,1.376,0,0,1,.748-1.7c.586-.156,1.2.356,1.377,1.143" transform="translate(-233.25 -548.177)"/>
          <path id="路径_1140-2" data-name="路径 1140" class="cls-6" d="M241.421,575.284a.646.646,0,1,1-.625-.484.567.567,0,0,1,.625.484" transform="translate(-236.863 -551.881)"/>
          <path id="路径_1141-2" data-name="路径 1141" class="cls-6" d="M335.094,568.556a1.962,1.962,0,0,0,1,2.427c.8.21,1.655-.534,1.9-1.664a1.962,1.962,0,0,0-1-2.427c-.8-.212-1.654.534-1.9,1.664" transform="translate(-314.064 -545.416)"/>
          <path id="路径_1142-2" data-name="路径 1142" class="cls-7" d="M337.221,571.42c-.175.786.039,1.093.625,1.247s1.325.1,1.5-.689a1.377,1.377,0,0,0-.748-1.7c-.586-.156-1.2.356-1.377,1.143" transform="translate(-315.804 -548.177)"/>
          <path id="路径_1143-2" data-name="路径 1143" class="cls-6" d="M337.99,575.284a.645.645,0,1,0,.623-.484.567.567,0,0,0-.623.484" transform="translate(-316.478 -551.881)"/>
          <path id="路径_1144-2" data-name="路径 1144" class="cls-8" d="M242.537,657.544h-1.919a4.878,4.878,0,0,1-4.878-4.878V650.1a6.413,6.413,0,0,1,6.331-6.759l.467,1.632a3.847,3.847,0,0,1,3.836,3.836v4.9a3.85,3.85,0,0,1-3.838,3.836" transform="translate(-233.258 -607.665)"/>
          <path id="路径_1145-2" data-name="路径 1145" class="cls-8" d="M295.586,657.544H297.5a4.878,4.878,0,0,0,4.878-4.878V650.1a6.413,6.413,0,0,0-6.331-6.759l-.465,1.632a3.846,3.846,0,0,0-3.836,3.836v4.9a3.846,3.846,0,0,0,3.836,3.836" transform="translate(-278.844 -607.665)"/>
          <path id="路径_1146-2" data-name="路径 1146" class="cls-1" d="M260.637,657.283H246.88a1.7,1.7,0,0,1-1.69-1.69V646.4a3.393,3.393,0,0,1,3.383-3.384h10.791a3.393,3.393,0,0,1,3.383,3.384v8.771a2.118,2.118,0,0,1-2.111,2.108" transform="translate(-240.949 -607.404)"/>
          <path id="路径_1147-2" data-name="路径 1147" class="cls-9" d="M280.616,609h0a6.076,6.076,0,0,1-2.686-.681v-6.378a2.686,2.686,0,0,1,5.371,0v6.378a6.1,6.1,0,0,1-2.686.681" transform="translate(-267.595 -571.789)"/>
          <path id="路径_1148-2" data-name="路径 1148" class="cls-10" d="M280.616,599.99a2.693,2.693,0,0,0-2.686,2.686v4.23a8.223,8.223,0,0,0,5.369-.543v-3.685a2.693,2.693,0,0,0-2.684-2.687" transform="translate(-267.595 -572.383)"/>
          <path id="路径_1149-2" data-name="路径 1149" class="cls-6" d="M261.245,534.7c0,5.773-4.132,10.452-9.227,10.452s-9.227-4.679-9.227-10.452,4.132-9.748,9.227-9.748,9.227,3.975,9.227,9.748" transform="translate(-238.995 -511.308)"/>
          <path id="路径_1150-2" data-name="路径 1150" class="cls-9" d="M266.681,552.493c0-.165,0-.331-.011-.495,0-.049-.006-.1-.008-.147-.007-.121-.015-.244-.024-.363l-.011-.123c-.015-.149-.03-.3-.05-.441v-.005a9.961,9.961,0,0,0-1.5-4.1,11.564,11.564,0,0,1,.888,4.463c0,5.773-4.132,10.452-9.227,10.452a8.869,8.869,0,0,1-7.264-4.012h0a10.5,10.5,0,0,0,1.033,1.634.046.046,0,0,0,.009.011,10.047,10.047,0,0,0,.83.947l.006.006c.14.14.283.273.43.4.015.013.028.024.041.037a9.076,9.076,0,0,0,.945.728l.061.039c.141.093.285.182.43.266l.091.052a8.516,8.516,0,0,0,1.027.5l.119.045c.138.054.277.1.419.149l.14.045c.177.054.355.1.536.147l.006,0c.182.043.367.076.553.106.052.009.1.015.156.022.14.021.279.035.421.048.056.005.11.011.166.015.19.013.38.023.571.023a8.4,8.4,0,0,0,4.785-1.513,10.067,10.067,0,0,0,3.329-3.956q.212-.444.389-.914a11.623,11.623,0,0,0,.726-4.068v0Z" transform="translate(-244.432 -529.108)"/>
          <path id="路径_1151-2" data-name="路径 1151" class="cls-11" d="M243.123,543.869s-.026-3.568,2.235-4.941,7.061-.6,8.716-3.966c0,0,1.828,2.835,4.3,3.571s2.84,4.785,2.84,4.785a18.412,18.412,0,0,0-.041-4.785c-.37-2.579-5.777-6.006-11.762-4.707s-7.093,3.89-6.29,10.043" transform="translate(-239.079 -518.301)"/>
          <path id="路径_1152-2" data-name="路径 1152" class="cls-1" d="M234.34,487.98,236,502.437a11.59,11.59,0,0,1,9.026-3.893,12.188,12.188,0,0,1,9.3,3.892l1.383-14.455Z" transform="translate(-232.118 -481.219)"/>
          <path id="路径_1153-2" data-name="路径 1153" class="cls-8" d="M235.909,490.694a3.518,3.518,0,0,0,4.483-.028,5.364,5.364,0,0,0,9.346-.134,3.513,3.513,0,0,0,4.629.16,4.711,4.711,0,0,0,1.009.744l.333-3.477H234.34l.4,3.465a2.1,2.1,0,0,0,1.171-.731" transform="translate(-232.118 -481.202)"/>
          <path id="路径_1154-2" data-name="路径 1154" class="cls-11" d="M279.732,595.3a5.269,5.269,0,0,1-1.509,1.72,4.14,4.14,0,0,1-1.048.549,3.557,3.557,0,0,1-2.367,0,4.129,4.129,0,0,1-1.048-.549,5.269,5.269,0,0,1-1.509-1.72,8.844,8.844,0,0,0,1.733,1.372,3.822,3.822,0,0,0,4.014,0,8.8,8.8,0,0,0,1.735-1.372" transform="translate(-262.972 -568.565)"/>
          <path id="路径_1155-2" data-name="路径 1155" class="cls-12" d="M287.713,583.891a1.1,1.1,0,0,1-1-.5.56.56,0,0,0-.065.249c0,.415.474.752,1.063.752s1.061-.337,1.061-.752a.56.56,0,0,0-.065-.249,1.1,1.1,0,0,1-1,.5" transform="translate(-274.692 -558.872)"/>
          <path id="路径_1156-2" data-name="路径 1156" class="cls-11" d="M261.267,566.254a1.275,1.275,0,0,1-.02-.873,1.094,1.094,0,0,1,.255-.423.733.733,0,0,1,1.065,0,1.078,1.078,0,0,1,.255.423,1.27,1.27,0,0,1-.022.875,3.68,3.68,0,0,0-.354-.692,1.051,1.051,0,0,0-.214-.227.363.363,0,0,0-.2-.074.347.347,0,0,0-.2.074.978.978,0,0,0-.214.229,3.351,3.351,0,0,0-.356.689" transform="translate(-253.963 -543.685)"/>
          <path id="路径_1157-2" data-name="路径 1157" class="cls-11" d="M314.447,566.254a1.276,1.276,0,0,1-.02-.873,1.1,1.1,0,0,1,.255-.423.733.733,0,0,1,1.064,0,1.058,1.058,0,0,1,.255.423,1.282,1.282,0,0,1-.02.875,3.583,3.583,0,0,0-.356-.692,1.008,1.008,0,0,0-.214-.227.363.363,0,0,0-.2-.074.348.348,0,0,0-.2.074.982.982,0,0,0-.214.229,3.357,3.357,0,0,0-.355.689" transform="translate(-297.245 -543.685)"/>
          <path id="路径_1158-2" data-name="路径 1158" class="cls-1" d="M246.306,456.28a2.142,2.142,0,0,0-.428.043,3.519,3.519,0,0,0-5.859-1.874,5.364,5.364,0,0,0-9.346-.134,3.523,3.523,0,0,0-5.714,2.006,2.156,2.156,0,0,0-.428-.043,2.131,2.131,0,1,0,1.656,3.469,3.518,3.518,0,0,0,4.483-.028,5.364,5.364,0,0,0,9.346-.134,3.511,3.511,0,0,0,4.629.162,2.13,2.13,0,1,0,1.66-3.467" transform="translate(-222.4 -451.65)"/>
          <path id="路径_1159-2" data-name="路径 1159" class="cls-8" d="M261.642,677.558h11.144a3.241,3.241,0,0,0,.542-.048V667.93H261.64v9.627Z" transform="translate(-254.337 -627.678)"/>
          <path id="路径_1160-2" data-name="路径 1160" class="cls-1" d="M266.03,677.558h10.331a3.241,3.241,0,0,0,.542-.048V667.93L266.03,669Z" transform="translate(-257.91 -627.678)"/>
          <path id="路径_1161-2" data-name="路径 1161" class="cls-8" d="M272.9,679.175a.705.705,0,1,1-.705-.705.706.706,0,0,1,.705.705" transform="translate(-262.354 -636.257)"/>
          <path id="路径_1162-2" data-name="路径 1162" class="cls-8" d="M272.9,693.805a.705.705,0,1,1-.705-.705.706.706,0,0,1,.705.705" transform="translate(-262.354 -648.164)"/>
          <path id="路径_1163-2" data-name="路径 1163" class="cls-8" d="M272.9,708.434a.705.705,0,1,1-.705-.7.706.706,0,0,1,.705.7" transform="translate(-262.354 -660.071)"/>
        </g>
      </g>
    </g>
  </g>
</svg>
